<svg width="32.055" height="32.055" xmlns="http://www.w3.org/2000/svg" xml:space="preserve" version="1.1">

 <g>
  <title>Layer 1</title>
  <g stroke="#fff" fill="#000" id="svg_1">
   <path stroke="#fff" fill="#172b4d" id="svg_2" d="m3.968,12.061c-2.193,0 -3.968,1.774 -3.968,3.966c0,2.192 1.773,3.967 3.968,3.967c2.189,0 3.966,-1.772 3.966,-3.967c0,-2.192 -1.777,-3.966 -3.966,-3.966zm12.265,0c-2.188,0 -3.968,1.773 -3.968,3.965c0,2.192 1.778,3.967 3.968,3.967s3.97,-1.772 3.97,-3.967c-0.002,-2.191 -1.78,-3.965 -3.97,-3.965zm11.857,0c-2.192,0 -3.969,1.774 -3.969,3.967c0,2.19 1.774,3.965 3.969,3.965c2.188,0 3.965,-1.772 3.965,-3.965s-1.777,-3.967 -3.965,-3.967z"/>
  </g>
  <g id="svg_3"/>
  <g id="svg_4"/>
  <g id="svg_5"/>
  <g id="svg_6"/>
  <g id="svg_7"/>
  <g id="svg_8"/>
  <g id="svg_9"/>
  <g id="svg_10"/>
  <g id="svg_11"/>
  <g id="svg_12"/>
  <g id="svg_13"/>
  <g id="svg_14"/>
  <g id="svg_15"/>
  <g id="svg_16"/>
  <g id="svg_17"/>
 </g>
</svg>